<?xml version="1.0" encoding="UTF-8" ?>
<!DOCTYPE svg PUBLIC "-//W3C//DTD SVG 1.1//EN" "http://www.w3.org/Graphics/SVG/1.1/DTD/svg11.dtd">
<svg width="300pt" height="225pt" viewBox="0 0 300 225" version="1.1" xmlns="http://www.w3.org/2000/svg">
<path fill="#000000" d=" M 0.00 0.00 L 300.00 0.00 L 300.00 225.00 L 0.00 225.00 L 0.00 0.00 Z" />
<path fill="#565553" d=" M 224.24 3.93 C 225.04 2.71 225.30 0.79 226.96 0.39 C 228.88 0.73 229.06 2.77 229.65 4.25 C 227.84 4.16 226.04 4.06 224.24 3.93 Z" />
<path fill="#1f1f1f" d=" M 25.31 5.41 C 27.32 3.96 30.33 5.28 29.66 7.93 C 30.28 10.23 26.73 10.78 25.37 9.57 C 23.88 8.83 23.93 6.13 25.31 5.41 Z" />
<path fill="#202020" d=" M 60.63 5.68 C 62.01 5.41 63.41 5.31 64.81 5.16 C 64.59 6.83 64.41 8.50 63.98 10.13 C 61.15 10.70 59.57 8.13 60.63 5.68 Z" />
<path fill="#e1e5e2" d=" M 176.49 9.92 C 177.81 9.64 179.15 9.52 180.50 9.37 L 179.76 12.30 L 182.27 10.40 C 181.70 10.95 181.14 11.50 180.60 12.06 C 180.87 13.49 183.18 15.23 181.52 16.50 C 179.48 16.12 176.41 15.29 177.34 12.51 L 180.56 9.54 L 176.49 9.92 Z" />
<path fill="#59585d" d=" M 152.28 10.53 C 154.04 10.85 156.01 10.65 157.64 11.51 C 158.53 12.38 158.62 13.76 159.14 14.84 C 157.40 14.84 155.19 15.78 153.86 14.20 C 153.23 13.02 152.71 11.79 152.28 10.53 Z" />
<path fill="#131313" d=" M 156.22 16.86 C 157.80 17.17 160.90 16.50 160.65 19.03 C 160.81 21.67 158.37 23.04 156.02 22.38 C 156.08 20.54 156.15 18.70 156.22 16.86 Z" />
<path fill="#232523" d=" M 63.06 23.82 C 64.39 24.18 65.91 24.13 67.10 24.89 C 67.81 26.03 67.07 27.50 67.09 28.76 C 66.30 28.76 64.70 28.75 63.90 28.75 C 63.61 27.11 63.33 25.46 63.06 23.82 Z" />
<path fill="#222222" d=" M 151.69 27.84 C 152.68 26.38 153.53 22.97 155.90 24.05 C 157.99 24.26 157.91 26.63 156.99 27.98 C 155.22 28.17 153.45 27.97 151.69 27.84 Z" />
<path fill="#8f8f8e" d=" M 23.57 29.97 C 24.20 29.62 25.47 28.91 26.10 28.55 C 26.73 28.90 27.99 29.60 28.62 29.94 C 28.58 31.41 28.53 32.89 28.48 34.36 C 27.03 34.18 25.58 33.98 24.13 33.78 C 23.94 32.51 23.75 31.24 23.57 29.97 Z" />
<path fill="#848483" d=" M 263.86 32.21 C 264.65 30.89 265.45 29.57 266.27 28.28 C 267.76 29.91 269.18 31.80 268.50 34.16 C 266.60 34.92 265.26 33.11 263.86 32.21 Z" />
<path fill="#525051" d=" M 287.70 32.39 C 289.00 30.85 290.68 29.75 292.50 28.92 C 292.52 30.56 292.53 32.20 292.54 33.84 C 290.92 33.37 289.30 32.89 287.70 32.39 Z" />
<path fill="#817f80" d=" M 214.32 36.98 C 213.71 34.76 215.99 34.11 217.52 35.12 C 218.01 36.84 218.28 38.61 218.59 40.37 C 216.39 40.51 213.86 39.65 214.32 36.98 Z" />
<path fill="#7a797d" d=" M 37.44 36.29 C 38.73 35.64 40.02 35.00 41.32 34.36 C 42.27 35.72 43.23 37.08 44.19 38.44 C 41.64 38.63 38.82 38.93 37.44 36.29 Z" />
<path fill="#5b5b5b" d=" M 107.64 46.02 C 107.21 43.05 109.26 41.24 111.91 40.57 C 111.96 42.59 113.21 46.06 110.07 46.29 C 109.46 46.22 108.25 46.09 107.64 46.02 Z" />
<path fill="#131413" d=" M 205.07 45.90 C 204.64 43.86 205.06 41.66 207.07 40.65 C 208.01 42.12 208.77 43.68 209.55 45.24 C 208.06 45.51 206.58 45.79 205.07 45.90 Z" />
<path fill="#fbfffe" d=" M 152.44 47.06 C 153.09 46.67 154.41 45.88 155.07 45.48 C 155.68 45.99 156.91 46.99 157.52 47.49 C 156.75 48.88 155.90 50.21 155.00 51.52 C 154.09 50.07 153.24 48.57 152.44 47.06 Z" />
<path fill="#c0c2c0" d=" M 64.52 47.33 C 67.22 47.37 68.60 49.51 69.52 51.77 C 67.87 51.77 65.93 52.97 64.43 51.84 C 64.35 50.33 64.44 48.83 64.52 47.33 Z" />
<path fill="#171717" d=" M 112.07 47.45 C 112.89 47.17 114.55 46.60 115.37 46.32 C 115.49 48.14 116.15 51.84 113.10 51.08 C 112.33 50.03 111.97 48.74 112.07 47.45 Z" />
<path fill="#242527" d=" M 94.01 48.08 C 95.40 48.02 96.78 48.00 98.17 48.03 C 97.63 49.57 97.48 51.40 96.06 52.45 C 94.02 52.06 92.29 49.91 94.01 48.08 Z" />
<path fill="#1d1d21" d=" M 27.59 51.70 C 28.94 49.72 30.82 48.50 33.30 48.90 C 32.85 51.42 31.19 53.34 29.45 55.09 C 29.00 54.56 28.10 53.48 27.65 52.94 C 26.48 53.69 25.32 54.44 24.16 55.20 C 24.77 53.95 25.35 52.69 25.90 51.41 C 26.32 51.48 27.16 51.63 27.59 51.70 Z" />
<path fill="#747474" d=" M 24.16 55.20 C 25.32 54.44 26.48 53.69 27.65 52.94 C 28.10 53.48 29.00 54.56 29.45 55.09 C 27.94 56.32 26.34 57.45 24.64 58.40 C 24.52 57.60 24.28 56.00 24.16 55.20 Z" />
<path fill="#c3c4c6" d=" M 84.15 56.57 C 84.34 55.23 84.51 53.88 84.81 52.55 C 86.10 52.86 87.38 53.21 88.65 53.61 C 88.30 54.95 87.95 56.29 87.58 57.62 C 86.43 57.28 85.29 56.92 84.15 56.57 Z" />
<path fill="#828486" d=" M 17.71 56.20 C 18.55 55.25 19.37 54.29 20.20 53.34 C 22.84 54.64 22.79 57.23 22.17 59.74 C 20.42 58.90 18.90 57.71 17.71 56.20 Z" />
<path fill="#171816" d=" M 283.94 59.60 C 283.93 57.50 283.04 54.95 285.00 53.39 C 287.79 55.24 286.47 58.38 283.94 59.60 Z" />
<path fill="#b6b5b5" d=" M 250.32 58.34 C 251.57 58.98 252.75 59.76 253.96 60.48 C 253.60 62.36 252.75 64.07 251.57 65.57 C 250.49 64.97 249.41 64.38 248.34 63.77 C 248.38 62.77 248.42 61.77 248.47 60.77 C 249.09 59.96 249.70 59.15 250.32 58.34 Z" />
<path fill="#5f5e5f" d=" M 255.33 59.82 C 257.07 59.65 258.82 59.49 260.57 59.32 C 260.58 60.74 260.59 62.16 260.60 63.58 C 259.85 63.89 258.35 64.50 257.60 64.80 C 256.12 63.50 255.28 61.80 255.33 59.82 Z" />
<path fill="#343434" d=" M 45.62 63.46 C 46.47 61.24 48.01 59.48 50.61 59.78 C 50.63 61.40 50.64 63.02 50.65 64.64 C 50.01 64.82 48.71 65.17 48.06 65.34 C 47.45 64.87 46.23 63.93 45.62 63.46 Z" />
<path fill="#747474" d=" M 154.69 70.29 C 154.95 70.69 155.46 71.47 155.71 71.86 C 156.35 71.11 156.98 70.36 157.60 69.59 L 156.96 72.32 L 159.03 71.24 C 158.19 72.48 157.58 73.85 157.00 75.22 C 155.69 75.04 154.37 74.90 153.05 74.77 C 153.59 73.27 154.15 71.79 154.69 70.29 Z" />
<path fill="#141414" d=" M 178.30 73.29 C 178.81 71.69 180.03 70.21 181.88 70.89 C 181.99 72.36 182.06 73.83 182.08 75.31 C 180.68 74.90 178.67 75.09 178.30 73.29 Z" />
<path fill="#403f45" d=" M 201.36 74.61 C 201.03 72.87 201.84 70.80 203.92 70.92 C 206.16 71.86 205.88 74.68 206.56 76.60 C 204.81 76.01 202.85 75.79 201.36 74.61 Z" />
<path fill="#19191b" d=" M 265.34 76.47 C 266.65 75.45 267.94 76.32 269.00 77.23 C 268.79 78.46 268.42 79.67 267.80 80.76 C 266.48 80.90 265.16 80.99 263.84 81.04 C 264.30 79.55 263.76 77.38 265.34 76.47 Z" />
<path fill="#444544" d=" M 90.42 76.67 C 92.03 77.33 95.24 77.38 94.64 79.90 C 94.63 81.87 91.71 81.58 90.36 82.21 C 90.37 80.36 90.39 78.52 90.42 76.67 Z" />
<path fill="#7e8080" d=" M 129.17 84.08 C 129.90 83.72 131.35 82.98 132.08 82.62 C 132.76 82.96 134.11 83.65 134.79 83.99 C 133.93 85.83 133.06 87.85 130.97 88.56 C 129.72 87.37 129.47 85.69 129.17 84.08 Z" />
<path fill="#a5a6aa" d=" M 127.00 90.61 C 127.21 89.99 127.63 88.73 127.84 88.10 C 129.50 89.07 130.67 90.48 130.95 92.41 C 130.41 92.91 129.34 93.92 128.80 94.42 C 128.17 94.03 126.91 93.26 126.28 92.87 C 126.46 92.31 126.82 91.18 127.00 90.61 Z" />
<path fill="#424242" d=" M 29.24 94.71 C 29.98 92.93 29.71 90.19 31.95 89.56 C 34.13 89.95 34.55 92.15 35.06 93.92 C 33.12 94.20 31.18 94.46 29.24 94.71 Z" />
<path fill="#3d3e41" d=" M 121.22 90.27 C 123.15 90.12 125.09 90.31 127.00 90.61 C 126.82 91.18 126.46 92.31 126.28 92.87 C 126.08 92.62 125.68 92.11 125.48 91.85 C 124.14 92.83 122.85 94.19 121.03 93.91 C 120.87 92.68 120.94 91.47 121.22 90.27 Z" />
<path fill="#393937" d=" M 38.58 97.00 C 39.15 94.85 41.97 95.31 43.65 94.73 C 43.63 96.56 43.61 98.38 43.58 100.21 C 41.61 99.70 39.08 99.42 38.58 97.00 Z" />
<path fill="#656567" d=" M 228.50 103.48 C 226.99 101.49 229.80 100.39 230.98 99.31 C 231.77 101.23 232.48 103.18 233.10 105.17 C 231.55 104.72 229.10 105.48 228.50 103.48 Z" />
<path fill="#2a2c2b" d=" M 287.89 101.99 C 287.23 99.61 289.96 99.78 291.33 100.58 C 293.35 101.20 292.63 103.72 293.15 105.28 C 291.06 104.97 287.82 104.92 287.89 101.99 Z" />
<path fill="#343434" d=" M 267.29 108.24 C 269.02 107.51 272.51 107.22 272.13 110.00 C 272.77 111.63 270.08 112.14 268.97 112.00 C 266.71 112.42 266.46 109.72 267.29 108.24 Z" />
<path fill="#6a6971" d=" M 297.72 109.04 C 297.97 108.85 298.49 108.48 298.74 108.29 C 298.91 109.76 298.89 111.27 298.63 112.73 L 298.31 113.32 C 298.31 114.33 298.37 115.33 298.49 116.34 C 297.01 116.60 295.52 116.83 294.04 117.08 C 294.42 115.33 294.40 113.25 296.11 112.19 C 296.86 111.50 298.34 110.83 297.79 109.57 L 297.72 109.04 Z" />
<path fill="#484d51" d=" M 61.34 114.27 C 62.72 113.81 64.20 114.00 65.63 113.93 C 65.63 114.68 65.64 116.16 65.64 116.91 C 63.97 117.39 62.29 117.85 60.61 118.31 C 60.80 116.95 61.05 115.60 61.34 114.27 Z" />
<path fill="#b6b5b5" d=" M 166.33 119.43 C 167.17 118.85 167.70 117.59 168.75 117.38 C 169.79 119.10 168.87 121.28 168.75 123.13 C 168.18 123.11 167.03 123.07 166.46 123.06 C 166.42 121.85 166.37 120.64 166.33 119.43 Z" />
<path fill="#3b3b3a" d=" M 269.03 118.57 C 270.09 118.98 271.14 119.45 272.16 119.96 C 272.50 121.23 272.62 122.54 272.82 123.84 C 271.24 123.50 269.67 123.15 268.10 122.80 C 268.40 121.39 268.71 119.98 269.03 118.57 Z" />
<path fill="#939593" d=" M 163.38 124.89 C 164.45 124.85 165.52 124.82 166.59 124.80 C 166.90 126.40 167.22 128.00 167.53 129.61 C 166.17 129.59 164.82 129.57 163.46 129.54 C 163.43 127.99 163.40 126.44 163.38 124.89 Z" />
<path fill="#ececf1" d=" M 197.92 126.14 C 198.34 124.65 200.10 124.22 201.14 123.26 C 202.51 124.95 203.00 127.00 202.48 129.13 C 200.20 130.15 198.33 128.21 197.92 126.14 Z" />
<path fill="#3a3a3a" d=" M 132.82 125.27 C 134.41 125.07 136.00 124.88 137.59 124.70 C 137.12 126.26 136.71 127.83 136.09 129.34 C 133.70 129.47 133.59 126.89 132.82 125.27 Z" />
<path fill="#525252" d=" M 210.30 125.19 C 213.35 123.85 215.60 126.94 214.59 129.74 C 211.52 131.80 209.60 127.85 210.30 125.19 Z" />
<path fill="#4d4d4d" d=" M 164.69 131.95 C 166.14 131.03 168.05 131.61 169.69 131.43 C 169.14 133.25 168.58 135.06 167.99 136.86 C 166.51 135.53 164.45 134.25 164.69 131.95 Z" />
<path fill="#3e413e" d=" M 207.00 130.87 C 208.45 131.09 210.00 131.05 211.35 131.73 C 211.58 133.34 211.33 134.96 211.21 136.57 C 210.08 136.11 208.99 135.59 207.93 135.01 C 207.47 133.67 207.28 132.25 207.00 130.87 Z" />
<path fill="#131311" d=" M 290.73 130.70 C 292.26 131.28 294.90 130.54 295.42 132.62 C 296.24 134.54 294.04 136.79 292.06 135.91 C 290.99 134.39 291.08 132.44 290.73 130.70 Z" />
<path fill="#151716" d=" M 257.63 138.06 C 259.21 137.57 260.80 137.09 262.40 136.62 C 262.39 138.55 263.07 142.41 260.00 142.02 C 258.82 140.98 258.38 139.38 257.63 138.06 Z" />
<path fill="#64635f" d=" M 83.49 141.86 C 84.28 140.38 85.08 138.91 86.05 137.53 C 87.36 138.91 87.66 140.82 88.15 142.57 C 86.60 142.35 85.04 142.12 83.49 141.86 Z" />
<path fill="#1c1c1c" d=" M 202.28 143.26 C 202.93 143.24 204.23 143.21 204.88 143.19 C 205.28 144.75 205.68 146.31 206.08 147.86 C 204.89 147.72 203.71 147.58 202.53 147.44 C 202.44 146.04 202.36 144.65 202.28 143.26 Z" />
<path fill="#a09f9f" d=" M 159.61 149.75 C 159.53 149.33 159.39 148.48 159.32 148.06 C 159.87 149.57 160.57 151.06 160.70 152.69 C 158.81 154.73 156.23 154.10 154.11 152.81 C 154.49 152.84 155.26 152.90 155.64 152.93 C 155.95 151.85 156.27 150.78 156.58 149.71 C 157.34 149.72 158.85 149.74 159.61 149.75 Z" />
<path fill="#64635f" d=" M 214.27 156.42 C 215.60 156.55 216.91 156.83 218.23 157.09 C 217.43 159.60 215.41 160.99 212.79 161.03 C 213.24 159.48 213.63 157.91 214.27 156.42 Z" />
<path fill="#606060" d=" M 35.47 160.57 C 36.66 160.35 37.86 160.18 39.07 160.04 C 39.50 161.81 39.61 163.63 39.80 165.44 C 38.62 165.48 37.45 165.54 36.28 165.59 C 36.00 163.92 35.73 162.24 35.47 160.57 Z" />
<path fill="#929294" d=" M 6.07 163.60 C 7.42 162.48 8.99 161.69 10.63 161.08 C 10.64 163.07 10.66 165.06 10.50 167.05 C 8.58 166.66 7.49 164.76 6.07 163.60 Z" />
<path fill="#575a58" d=" M 292.74 162.05 C 293.32 161.66 294.49 160.89 295.07 160.50 C 296.44 161.48 297.80 162.45 299.17 163.44 C 297.57 164.26 295.96 165.08 294.36 165.89 C 293.81 164.61 293.27 163.33 292.74 162.05 Z" />
<path fill="#161616" d=" M 144.80 172.69 C 146.68 173.12 148.57 173.54 150.46 173.96 C 149.04 175.58 147.30 176.87 145.14 177.30 C 145.02 175.76 144.91 174.22 144.80 172.69 Z" />
<path fill="#343435" d=" M 147.45 179.30 C 148.56 178.65 149.76 178.17 150.94 177.64 C 151.19 179.22 151.51 180.81 151.61 182.41 C 150.46 183.13 149.22 183.39 147.88 183.19 C 147.23 182.00 147.28 180.60 147.45 179.30 Z" />
<path fill="#17161a" d=" M 286.01 177.76 C 287.83 178.02 289.64 178.73 289.36 180.95 C 289.86 183.06 287.01 182.86 285.83 183.50 C 285.87 181.58 285.93 179.67 286.01 177.76 Z" />
<path fill="#3e3e40" d=" M 176.69 178.69 C 178.29 179.05 180.68 178.57 181.52 180.40 C 181.98 181.87 181.31 184.44 179.32 183.76 C 178.25 182.17 177.49 180.41 176.69 178.69 Z" />
<path fill="#363638" d=" M 189.05 178.85 C 190.48 179.15 191.93 179.42 193.34 179.86 C 193.60 181.41 193.33 182.99 193.24 184.55 C 192.10 184.09 190.98 183.58 189.90 183.01 C 189.39 181.68 189.31 180.23 189.05 178.85 Z" />
<path fill="#3e3e40" d=" M 58.59 184.91 C 59.95 184.73 61.36 183.59 62.74 184.17 C 65.41 185.15 64.19 189.38 62.00 190.20 C 60.49 188.71 59.59 186.75 58.59 184.91 Z" />
<path fill="#a4a4a9" d=" M 264.77 184.70 C 265.01 184.63 265.48 184.47 265.72 184.40 C 267.71 185.55 269.01 187.21 268.83 189.61 C 268.36 189.85 267.41 190.34 266.94 190.58 C 266.09 190.00 265.24 189.43 264.40 188.85 C 264.54 187.47 264.66 186.08 264.77 184.70 Z" />
<path fill="#181817" d=" M 51.11 190.99 C 52.96 191.67 56.33 192.20 54.94 194.98 C 54.20 195.01 52.72 195.06 51.98 195.09 C 51.59 193.74 51.37 192.36 51.11 190.99 Z" />
<path fill="#343432" d=" M 291.62 194.10 C 291.99 192.85 292.64 191.49 294.00 191.09 C 297.32 190.12 295.55 194.46 296.00 196.30 C 294.47 195.73 292.07 196.14 291.62 194.10 Z" />
<path fill="#c2c7c4" d=" M 91.30 195.29 C 92.59 196.57 94.87 197.44 94.70 199.59 C 93.70 201.17 91.86 201.39 90.17 201.25 C 90.35 199.23 90.70 197.23 91.30 195.29 Z" />
<path fill="#909195" d=" M 179.54 200.18 C 181.97 199.39 179.80 194.70 182.86 195.46 L 183.32 195.28 C 184.50 196.91 184.80 199.05 185.35 200.95 C 184.63 201.72 183.86 202.42 183.01 203.05 C 182.04 202.34 181.17 201.50 180.21 200.78 C 180.04 200.63 179.70 200.33 179.54 200.18 Z" />
<path fill="#373636" d=" M 198.39 197.32 C 201.43 195.52 203.56 199.24 204.20 201.73 C 202.37 201.99 200.54 202.36 198.68 202.38 C 198.38 200.71 198.27 199.01 198.39 197.32 Z" />
<path fill="#2c2c2d" d=" M 57.34 206.76 C 55.97 204.99 57.67 202.09 59.93 202.96 C 62.11 202.98 61.71 205.60 62.31 207.02 C 60.65 206.98 58.97 207.12 57.34 206.76 Z" />
<path fill="#5b5b5c" d=" M 255.76 202.61 C 257.29 203.02 258.83 203.44 260.37 203.86 C 260.20 204.66 259.85 206.27 259.67 207.07 C 258.24 207.05 256.80 207.09 255.40 206.81 C 255.44 205.40 255.61 204.00 255.76 202.61 Z" />
<path fill="#232322" d=" M 45.66 207.96 C 46.16 206.36 45.73 203.85 48.00 203.64 C 49.54 204.56 49.65 206.63 50.44 208.10 C 48.84 208.05 47.25 208.01 45.66 207.96 Z" />
<path fill="#606062" d=" M 194.49 208.27 C 195.29 206.83 195.65 204.99 197.00 203.93 C 197.79 203.96 199.36 204.02 200.15 204.05 C 199.51 205.36 199.47 207.26 198.01 208.00 C 197.13 208.06 195.37 208.20 194.49 208.27 Z" />
<path fill="#212120" d=" M 201.99 203.92 C 205.12 202.69 205.60 205.79 205.10 208.15 C 202.66 208.87 200.20 205.97 201.99 203.92 Z" />
<path fill="#282725" d=" M 148.09 214.60 C 149.64 215.34 152.47 215.40 152.05 217.81 C 151.00 218.55 149.82 219.48 148.47 218.89 C 148.29 217.46 148.16 216.03 148.09 214.60 Z" />
</svg>
