<?xml version="1.0" encoding="utf-8"?>
<!-- Generator: Adobe Illustrator 15.0.0, SVG Export Plug-In . SVG Version: 6.00 Build 0)  -->
<!DOCTYPE svg PUBLIC "-//W3C//DTD SVG 1.1//EN" "http://www.w3.org/Graphics/SVG/1.1/DTD/svg11.dtd">
<svg version="1.1" xmlns="http://www.w3.org/2000/svg" xmlns:xlink="http://www.w3.org/1999/xlink" x="0px" y="0px" width="300px"
	 height="225px" viewBox="0 0 300 225" enable-background="new 0 0 300 225" xml:space="preserve">
<g id="Layer_1">
	<path d="M0,0h300v225H0V0z"/>
	<path fill="#565553" d="M224.24,3.93c0.8-1.22,1.06-3.14,2.72-3.54c1.92,0.34,2.101,2.38,2.69,3.86
		C227.84,4.16,226.04,4.06,224.24,3.93z"/>
	<path fill="#1F1F1F" d="M25.31,5.41c2.01-1.45,5.02-0.13,4.35,2.52c0.62,2.3-2.93,2.85-4.29,1.64C23.88,8.83,23.93,6.13,25.31,5.41
		z"/>
	<path fill="#202020" d="M60.63,5.68c1.38-0.27,2.78-0.37,4.18-0.52c-0.22,1.67-0.4,3.34-0.83,4.97
		C61.15,10.7,59.57,8.13,60.63,5.68z"/>
	<path fill="#E1E5E2" d="M176.49,9.92c1.32-0.28,2.66-0.4,4.01-0.55l-0.74,2.93l2.51-1.9c-0.569,0.55-1.129,1.1-1.67,1.66
		c0.271,1.43,2.58,3.17,0.92,4.44c-2.039-0.38-5.109-1.21-4.18-3.99l3.221-2.97L176.49,9.92z"/>
	<path fill="#59585D" d="M152.279,10.53c1.761,0.32,3.73,0.12,5.361,0.979c0.889,0.87,0.979,2.25,1.5,3.33
		c-1.74,0-3.951,0.94-5.281-0.64C153.23,13.02,152.71,11.79,152.279,10.53z"/>
	<path fill="#131313" d="M156.221,16.86c1.579,0.31,4.68-0.36,4.43,2.17c0.16,2.64-2.28,4.01-4.631,3.35
		C156.08,20.54,156.15,18.7,156.221,16.86z"/>
	<path fill="#232523" d="M63.06,23.82c1.33,0.36,2.85,0.31,4.04,1.07c0.71,1.14-0.03,2.61-0.01,3.87c-0.79,0-2.39-0.01-3.19-0.01
		C63.61,27.11,63.33,25.46,63.06,23.82z"/>
	<path fill="#222222" d="M151.689,27.84c0.99-1.46,1.84-4.87,4.211-3.79c2.09,0.21,2.01,2.58,1.09,3.93
		C155.221,28.17,153.45,27.97,151.689,27.84z"/>
	<path fill="#8F8F8E" d="M23.57,29.97c0.63-0.35,1.9-1.06,2.53-1.42c0.63,0.35,1.89,1.05,2.52,1.39c-0.04,1.47-0.09,2.95-0.14,4.42
		c-1.45-0.18-2.9-0.38-4.35-0.58C23.94,32.51,23.75,31.24,23.57,29.97z"/>
	<path fill="#848483" d="M263.859,32.21c0.791-1.32,1.591-2.64,2.41-3.93c1.49,1.63,2.91,3.52,2.23,5.88
		C266.6,34.92,265.26,33.11,263.859,32.21z"/>
	<path fill="#525051" d="M287.7,32.39c1.3-1.54,2.979-2.64,4.8-3.47c0.02,1.64,0.029,3.28,0.04,4.92
		C290.92,33.37,289.3,32.89,287.7,32.39z"/>
	<path fill="#817F80" d="M214.32,36.98c-0.61-2.22,1.67-2.87,3.199-1.86c0.49,1.72,0.76,3.49,1.07,5.25
		C216.391,40.51,213.859,39.65,214.32,36.98z"/>
	<path fill="#7A797D" d="M37.44,36.29c1.29-0.65,2.58-1.29,3.88-1.93c0.95,1.36,1.91,2.72,2.87,4.08
		C41.64,38.63,38.82,38.93,37.44,36.29z"/>
	<path fill="#5B5B5B" d="M107.64,46.02c-0.43-2.97,1.62-4.78,4.27-5.45c0.05,2.02,1.3,5.49-1.84,5.72
		C109.46,46.22,108.25,46.09,107.64,46.02z"/>
	<path fill="#131413" d="M205.07,45.9c-0.43-2.04-0.01-4.24,2-5.25c0.939,1.47,1.699,3.03,2.479,4.59
		C208.061,45.51,206.58,45.79,205.07,45.9z"/>
	<path fill="#FBFFFE" d="M152.439,47.06c0.65-0.39,1.971-1.18,2.631-1.58c0.609,0.51,1.84,1.51,2.449,2.01
		c-0.77,1.39-1.619,2.72-2.52,4.03C154.09,50.07,153.24,48.57,152.439,47.06z"/>
	<path fill="#C0C2C0" d="M64.52,47.33c2.7,0.04,4.08,2.18,5,4.44c-1.65,0-3.59,1.2-5.09,0.07C64.35,50.33,64.44,48.83,64.52,47.33z"
		/>
	<path fill="#171717" d="M112.07,47.45c0.82-0.28,2.48-0.85,3.3-1.13c0.12,1.82,0.78,5.52-2.27,4.76
		C112.33,50.03,111.97,48.74,112.07,47.45z"/>
	<path fill="#242527" d="M94.01,48.08c1.39-0.06,2.77-0.08,4.16-0.05c-0.54,1.54-0.69,3.37-2.11,4.42
		C94.02,52.06,92.29,49.91,94.01,48.08z"/>
	<path fill="#1D1D21" d="M27.59,51.7c1.35-1.98,3.23-3.2,5.71-2.8c-0.45,2.52-2.11,4.44-3.85,6.19c-0.45-0.53-1.35-1.61-1.8-2.15
		c-1.17,0.75-2.33,1.5-3.49,2.26c0.61-1.25,1.19-2.51,1.74-3.79C26.32,51.48,27.16,51.63,27.59,51.7z"/>
	<path fill="#747474" d="M24.16,55.2c1.16-0.76,2.32-1.51,3.49-2.26c0.45,0.54,1.35,1.62,1.8,2.15c-1.51,1.23-3.11,2.36-4.81,3.31
		C24.52,57.6,24.28,56,24.16,55.2z"/>
	<path fill="#C3C4C6" d="M84.15,56.57c0.19-1.34,0.36-2.69,0.66-4.02c1.29,0.31,2.57,0.66,3.84,1.06c-0.35,1.34-0.7,2.68-1.07,4.01
		C86.43,57.28,85.29,56.92,84.15,56.57z"/>
	<path fill="#828486" d="M17.71,56.2c0.84-0.95,1.66-1.91,2.49-2.86c2.64,1.3,2.59,3.89,1.97,6.4C20.42,58.9,18.9,57.71,17.71,56.2z
		"/>
	<path fill="#171816" d="M283.939,59.6c-0.01-2.1-0.899-4.65,1.061-6.21C287.79,55.24,286.471,58.38,283.939,59.6z"/>
	<path fill="#B6B5B5" d="M250.32,58.34c1.25,0.64,2.43,1.42,3.64,2.14c-0.36,1.88-1.21,3.59-2.39,5.09c-1.08-0.6-2.16-1.19-3.23-1.8
		c0.04-1,0.08-2,0.131-3C249.09,59.96,249.7,59.15,250.32,58.34z"/>
	<path fill="#5F5E5F" d="M255.33,59.82c1.74-0.17,3.49-0.33,5.24-0.5c0.01,1.42,0.02,2.84,0.029,4.26c-0.75,0.31-2.25,0.92-3,1.22
		C256.12,63.5,255.279,61.8,255.33,59.82z"/>
	<path fill="#343434" d="M45.62,63.46c0.85-2.22,2.39-3.98,4.99-3.68c0.02,1.62,0.03,3.24,0.04,4.86c-0.64,0.18-1.94,0.53-2.59,0.7
		C47.45,64.87,46.23,63.93,45.62,63.46z"/>
	<path fill="#747474" d="M154.689,70.29c0.261,0.4,0.771,1.18,1.021,1.57c0.64-0.75,1.271-1.5,1.89-2.27l-0.64,2.73l2.069-1.08
		c-0.84,1.24-1.449,2.61-2.029,3.979c-1.311-0.18-2.63-0.32-3.95-0.45C153.59,73.27,154.15,71.79,154.689,70.29z"/>
	<path fill="#141414" d="M178.3,73.29c0.511-1.6,1.729-3.08,3.58-2.4c0.11,1.47,0.181,2.94,0.2,4.42
		C180.68,74.9,178.67,75.09,178.3,73.29z"/>
	<path fill="#403F45" d="M201.359,74.61c-0.33-1.74,0.48-3.81,2.561-3.69c2.24,0.94,1.96,3.76,2.641,5.68
		C204.811,76.01,202.85,75.79,201.359,74.61z"/>
	<path fill="#19191B" d="M265.34,76.47c1.311-1.02,2.6-0.15,3.66,0.76c-0.21,1.23-0.58,2.44-1.2,3.53
		c-1.319,0.14-2.64,0.23-3.96,0.28C264.3,79.55,263.76,77.38,265.34,76.47z"/>
	<path fill="#444544" d="M90.42,76.67c1.61,0.66,4.82,0.71,4.22,3.23c-0.01,1.97-2.93,1.68-4.28,2.31
		C90.37,80.36,90.39,78.52,90.42,76.67z"/>
	<path fill="#7E8080" d="M129.17,84.08c0.73-0.36,2.18-1.1,2.91-1.46c0.68,0.34,2.03,1.03,2.71,1.37c-0.86,1.84-1.73,3.86-3.82,4.57
		C129.72,87.37,129.47,85.69,129.17,84.08z"/>
	<path fill="#A5A6AA" d="M127,90.61c0.21-0.62,0.63-1.88,0.84-2.51c1.66,0.97,2.83,2.38,3.11,4.31c-0.54,0.5-1.61,1.51-2.15,2.01
		c-0.63-0.39-1.89-1.16-2.52-1.55C126.46,92.31,126.82,91.18,127,90.61z"/>
	<path fill="#424242" d="M29.24,94.71c0.74-1.78,0.47-4.52,2.71-5.15c2.18,0.39,2.6,2.59,3.11,4.36
		C33.12,94.2,31.18,94.46,29.24,94.71z"/>
	<path fill="#3D3E41" d="M121.22,90.27c1.93-0.15,3.87,0.04,5.78,0.34c-0.18,0.57-0.54,1.7-0.72,2.26c-0.2-0.25-0.6-0.76-0.8-1.02
		c-1.34,0.98-2.63,2.34-4.45,2.06C120.87,92.68,120.94,91.47,121.22,90.27z"/>
	<path fill="#393937" d="M38.58,97c0.57-2.15,3.39-1.69,5.07-2.27c-0.02,1.83-0.04,3.65-0.07,5.48C41.61,99.7,39.08,99.42,38.58,97z
		"/>
	<path fill="#656567" d="M228.5,103.48c-1.51-1.99,1.3-3.09,2.48-4.17c0.789,1.92,1.5,3.87,2.119,5.86
		C231.55,104.72,229.1,105.48,228.5,103.48z"/>
	<path fill="#2A2C2B" d="M287.891,101.99c-0.66-2.38,2.069-2.21,3.439-1.41c2.02,0.62,1.3,3.14,1.82,4.7
		C291.061,104.97,287.82,104.92,287.891,101.99z"/>
	<path fill="#343434" d="M267.29,108.24c1.729-0.73,5.22-1.021,4.84,1.76c0.64,1.63-2.05,2.14-3.159,2
		C266.71,112.42,266.46,109.72,267.29,108.24z"/>
	<path fill="#6A6971" d="M297.721,109.04c0.25-0.19,0.77-0.56,1.02-0.75c0.17,1.47,0.15,2.98-0.11,4.44l-0.319,0.59
		c0,1.01,0.06,2.01,0.18,3.02c-1.48,0.26-2.971,0.49-4.45,0.74c0.38-1.75,0.36-3.83,2.069-4.89c0.75-0.69,2.23-1.36,1.681-2.62
		L297.721,109.04z"/>
	<path fill="#484D51" d="M61.34,114.27c1.38-0.459,2.86-0.27,4.29-0.34c0,0.75,0.01,2.23,0.01,2.98c-1.67,0.48-3.35,0.939-5.03,1.4
		C60.8,116.95,61.05,115.6,61.34,114.27z"/>
	<path fill="#B6B5B5" d="M166.33,119.43c0.84-0.58,1.37-1.84,2.42-2.05c1.04,1.72,0.12,3.9,0,5.75
		c-0.57-0.021-1.721-0.06-2.29-0.069C166.42,121.85,166.37,120.641,166.33,119.43z"/>
	<path fill="#3B3B3A" d="M269.029,118.57c1.061,0.41,2.111,0.88,3.131,1.39c0.34,1.271,0.46,2.58,0.66,3.88
		c-1.58-0.34-3.15-0.689-4.721-1.04C268.4,121.391,268.71,119.98,269.029,118.57z"/>
	<path fill="#939593" d="M163.38,124.891c1.07-0.041,2.14-0.07,3.21-0.091c0.311,1.601,0.631,3.2,0.939,4.81
		c-1.359-0.02-2.709-0.039-4.069-0.069C163.43,127.99,163.4,126.439,163.38,124.891z"/>
	<path fill="#ECECF1" d="M197.92,126.141c0.42-1.49,2.18-1.921,3.221-2.881c1.369,1.69,1.859,3.74,1.34,5.87
		C200.2,130.15,198.33,128.21,197.92,126.141z"/>
	<path fill="#3A3A3A" d="M132.82,125.27c1.59-0.199,3.18-0.39,4.77-0.569c-0.47,1.56-0.88,3.13-1.5,4.64
		C133.7,129.47,133.59,126.891,132.82,125.27z"/>
	<path fill="#525252" d="M210.3,125.189c3.05-1.34,5.3,1.75,4.29,4.551C211.52,131.8,209.6,127.85,210.3,125.189z"/>
	<path fill="#4D4D4D" d="M164.689,131.95c1.451-0.92,3.36-0.341,5-0.521c-0.549,1.82-1.109,3.631-1.699,5.43
		C166.51,135.53,164.45,134.25,164.689,131.95z"/>
	<path fill="#3E413E" d="M207,130.87c1.45,0.22,3,0.18,4.35,0.86c0.23,1.609-0.02,3.229-0.14,4.84c-1.13-0.461-2.22-0.98-3.28-1.561
		C207.471,133.67,207.279,132.25,207,130.87z"/>
	<path fill="#131311" d="M290.73,130.7c1.529,0.58,4.17-0.16,4.689,1.92c0.82,1.92-1.38,4.17-3.359,3.29
		C290.99,134.391,291.08,132.439,290.73,130.7z"/>
	<path fill="#151716" d="M257.63,138.061c1.58-0.49,3.17-0.971,4.771-1.44c-0.01,1.93,0.67,5.79-2.4,5.399
		C258.82,140.98,258.38,139.38,257.63,138.061z"/>
	<path fill="#64635F" d="M83.49,141.859c0.79-1.479,1.59-2.949,2.56-4.329c1.31,1.38,1.61,3.29,2.1,5.04
		C86.6,142.35,85.04,142.12,83.49,141.859z"/>
	<path fill="#1C1C1C" d="M202.279,143.26c0.65-0.02,1.951-0.05,2.601-0.07c0.399,1.561,0.8,3.121,1.2,4.67
		c-1.189-0.14-2.37-0.279-3.551-0.42C202.439,146.04,202.359,144.65,202.279,143.26z"/>
	<path fill="#A09F9F" d="M159.609,149.75c-0.08-0.42-0.219-1.27-0.289-1.689c0.55,1.51,1.25,3,1.38,4.629
		c-1.89,2.041-4.47,1.41-6.591,0.121c0.381,0.029,1.15,0.09,1.531,0.119c0.31-1.08,0.629-2.149,0.939-3.22
		C157.34,149.72,158.85,149.74,159.609,149.75z"/>
	<path fill="#64635F" d="M214.27,156.42c1.33,0.13,2.641,0.41,3.961,0.67c-0.801,2.51-2.82,3.9-5.44,3.94
		C213.24,159.48,213.63,157.91,214.27,156.42z"/>
	<path fill="#606060" d="M35.47,160.57c1.19-0.221,2.39-0.391,3.6-0.53c0.43,1.771,0.54,3.59,0.73,5.399
		c-1.18,0.041-2.35,0.101-3.52,0.15C36,163.92,35.73,162.24,35.47,160.57z"/>
	<path fill="#929294" d="M6.07,163.6c1.35-1.119,2.92-1.91,4.56-2.52c0.01,1.99,0.03,3.98-0.13,5.97
		C8.58,166.66,7.49,164.76,6.07,163.6z"/>
	<path fill="#575A58" d="M292.74,162.05c0.58-0.39,1.75-1.159,2.33-1.55c1.369,0.98,2.729,1.95,4.1,2.939
		c-1.6,0.82-3.21,1.641-4.811,2.451C293.811,164.609,293.27,163.33,292.74,162.05z"/>
	<path fill="#161616" d="M144.8,172.689c1.88,0.431,3.77,0.851,5.66,1.271c-1.42,1.62-3.16,2.91-5.32,3.34
		C145.02,175.76,144.91,174.22,144.8,172.689z"/>
	<path fill="#343435" d="M147.45,179.3c1.11-0.649,2.31-1.13,3.489-1.659c0.25,1.579,0.57,3.17,0.67,4.77
		c-1.149,0.72-2.389,0.98-3.729,0.779C147.23,182,147.28,180.6,147.45,179.3z"/>
	<path fill="#17161A" d="M286.01,177.76c1.82,0.26,3.631,0.971,3.35,3.19c0.5,2.11-2.35,1.909-3.529,2.55
		C285.87,181.58,285.93,179.67,286.01,177.76z"/>
	<path fill="#3E3E40" d="M176.689,178.689c1.601,0.36,3.99-0.119,4.83,1.711c0.461,1.47-0.209,4.039-2.199,3.359
		C178.25,182.17,177.49,180.41,176.689,178.689z"/>
	<path fill="#363638" d="M189.05,178.85c1.431,0.301,2.88,0.57,4.29,1.01c0.26,1.551-0.01,3.131-0.1,4.69
		c-1.141-0.46-2.26-0.97-3.34-1.54C189.391,181.68,189.311,180.23,189.05,178.85z"/>
	<path fill="#3E3E40" d="M58.59,184.91c1.36-0.18,2.77-1.32,4.15-0.74c2.67,0.98,1.45,5.21-0.74,6.03
		C60.49,188.71,59.59,186.75,58.59,184.91z"/>
	<path fill="#A4A4A9" d="M264.77,184.7c0.24-0.07,0.711-0.23,0.951-0.3c1.989,1.149,3.289,2.81,3.109,5.209
		c-0.471,0.24-1.42,0.73-1.891,0.971c-0.85-0.58-1.699-1.15-2.539-1.73C264.54,187.47,264.66,186.08,264.77,184.7z"/>
	<path fill="#181817" d="M51.11,190.99c1.85,0.68,5.22,1.21,3.83,3.99c-0.74,0.029-2.22,0.08-2.96,0.109
		C51.59,193.74,51.37,192.359,51.11,190.99z"/>
	<path fill="#343432" d="M291.62,194.1c0.37-1.25,1.021-2.609,2.38-3.01c3.32-0.97,1.55,3.37,2,5.21
		C294.471,195.73,292.07,196.141,291.62,194.1z"/>
	<path fill="#C2C7C4" d="M91.3,195.29c1.29,1.28,3.57,2.149,3.4,4.3c-1,1.58-2.84,1.801-4.53,1.66
		C90.35,199.23,90.7,197.23,91.3,195.29z"/>
	<path fill="#909195" d="M179.54,200.18c2.431-0.789,0.26-5.479,3.319-4.72l0.461-0.18c1.18,1.63,1.479,3.77,2.029,5.67
		c-0.72,0.77-1.49,1.47-2.34,2.1c-0.97-0.71-1.84-1.55-2.8-2.27C180.04,200.63,179.7,200.33,179.54,200.18z"/>
	<path fill="#373636" d="M198.391,197.32c3.039-1.801,5.17,1.92,5.81,4.41c-1.83,0.26-3.66,0.629-5.521,0.649
		C198.38,200.71,198.27,199.01,198.391,197.32z"/>
	<path fill="#2C2C2D" d="M57.34,206.76c-1.37-1.77,0.33-4.67,2.59-3.8c2.18,0.021,1.78,2.64,2.38,4.06
		C60.65,206.98,58.97,207.12,57.34,206.76z"/>
	<path fill="#5B5B5C" d="M255.76,202.609c1.53,0.41,3.07,0.83,4.61,1.25c-0.17,0.801-0.521,2.41-0.7,3.211
		c-1.43-0.021-2.87,0.02-4.27-0.26C255.439,205.4,255.609,204,255.76,202.609z"/>
	<path fill="#232322" d="M45.66,207.96c0.5-1.601,0.07-4.11,2.34-4.319c1.54,0.92,1.65,2.989,2.44,4.459
		C48.84,208.05,47.25,208.01,45.66,207.96z"/>
	<path fill="#606062" d="M194.49,208.27c0.8-1.439,1.16-3.279,2.51-4.34c0.79,0.03,2.359,0.09,3.15,0.12
		c-0.641,1.31-0.68,3.21-2.141,3.95C197.13,208.061,195.37,208.2,194.49,208.27z"/>
	<path fill="#212120" d="M201.99,203.92c3.13-1.23,3.609,1.87,3.109,4.23C202.66,208.87,200.2,205.97,201.99,203.92z"/>
	<path fill="#282725" d="M148.09,214.6c1.55,0.74,4.381,0.801,3.96,3.211c-1.05,0.739-2.23,1.67-3.58,1.08
		C148.29,217.46,148.16,216.03,148.09,214.6z"/>
</g>
<g id="Layer_2">
	
		<rect x="-10.833" y="-5" fill="#1989A3" stroke="#000000" stroke-width="0.9473" stroke-miterlimit="10" width="312" height="236"/>
	<rect x="33.5" y="18" fill="#1989A3" width="124.5" height="19.5"/>
</g>
<g id="Layer_3">
	<ellipse fill="#8BC1C6" cx="41.75" cy="33.75" rx="29.25" ry="14.25"/>
	<rect x="35" y="20.25" fill="#8BC1C6" width="111" height="22.5"/>
	<ellipse fill="#8BC1C6" cx="91" cy="33.25" rx="29.25" ry="14.25"/>
	<ellipse fill="#8BC1C6" cx="133.375" cy="31" rx="25.125" ry="14.25"/>
	<ellipse fill="#8BC1C6" cx="58.36" cy="45.98" rx="29.25" ry="14.25"/>
	<rect x="51.61" y="32.48" fill="#8BC1C6" width="111" height="22.5"/>
	<ellipse fill="#8BC1C6" cx="107.61" cy="45.48" rx="29.25" ry="14.25"/>
	<ellipse fill="#8BC1C6" cx="149.985" cy="43.23" rx="25.125" ry="14.25"/>
	<ellipse fill="#8BC1C6" cx="110.136" cy="124.538" rx="21.136" ry="9.462"/>
	<rect x="105.259" y="115.574" fill="#8BC1C6" width="80.209" height="14.939"/>
	<ellipse fill="#8BC1C6" cx="145.724" cy="124.206" rx="21.136" ry="9.462"/>
	<ellipse fill="#8BC1C6" cx="176.345" cy="122.712" rx="18.155" ry="9.462"/>
	<ellipse fill="#8BC1C6" cx="195.912" cy="82.832" rx="21.136" ry="9.462"/>
	<rect x="191.034" y="73.868" fill="#8BC1C6" width="80.209" height="14.939"/>
	<ellipse fill="#8BC1C6" cx="231.5" cy="82.5" rx="21.136" ry="9.462"/>
	<ellipse fill="#8BC1C6" cx="262.12" cy="81.006" rx="18.155" ry="9.462"/>
	<ellipse fill="#8BC1C6" cx="192.513" cy="197.458" rx="21.737" ry="13.836"/>
	<rect x="187.496" y="184.352" fill="#8BC1C6" width="82.49" height="21.844"/>
	<ellipse fill="#8BC1C6" cx="229.112" cy="196.974" rx="21.737" ry="13.834"/>
	<ellipse fill="#8BC1C6" cx="260.604" cy="194.788" rx="18.671" ry="13.836"/>
</g>
</svg>
